<?xml version="1.0" encoding="UTF-8" standalone="no"?>
<!-- Created with Inkscape (http://www.inkscape.org/) -->

<svg
   version="1.1"
   id="svg1"
   width="570.66669"
   height="193.33333"
   viewBox="0 0 570.66669 193.33333"
   xmlns="http://www.w3.org/2000/svg"
   xmlns:svg="http://www.w3.org/2000/svg">
  <defs
     id="defs1">
    <clipPath
       clipPathUnits="userSpaceOnUse"
       id="clipPath9">
      <path
         d="M 0.06,144.274 H 427.99401 V 0.0599975 H 0.06 Z"
         id="path9" />
    </clipPath>
  </defs>
  <g
     id="g1">
    <path
       id="path1"
       d="m 269.241,40.722 h 3.961 v 5.907 h 4.075 c 3.526,0 5.724,2.244 5.724,5.472 0,1.67 -0.595,3.045 -1.626,4.074 -1.03,1.032 -2.541,1.581 -4.556,1.581 h -7.578 z m 3.961,13.714 h 3.343 c 1.602,0 2.518,-0.847 2.518,-2.335 0,-1.442 -0.893,-2.381 -2.541,-2.381 h -3.32 z m 19.415,-13.714 h 3.503 v 0.206 c -0.321,0.205 -0.458,0.733 -0.458,1.694 v 6.251 c 0,1.648 -0.595,2.907 -1.854,3.64 -0.848,0.504 -1.947,0.732 -3.503,0.732 -3.618,0 -5.312,-1.946 -5.404,-4.03 h 3.32 c 0.092,0.963 0.756,1.604 2.129,1.604 1.237,0 1.809,-0.595 1.809,-1.465 0,-0.917 -0.893,-1.26 -3.068,-1.557 -2.656,-0.321 -4.785,-1.008 -4.785,-3.709 0,-2.405 1.763,-3.688 4.167,-3.688 1.877,0 2.885,0.688 3.686,1.809 h 0.046 c 0.069,-0.686 0.229,-1.212 0.412,-1.487 m -3.022,2.038 c -0.985,0 -1.786,0.388 -1.786,1.441 0,1.054 0.756,1.442 2.335,1.787 0.802,0.183 1.58,0.366 2.107,0.686 v -1.579 c 0,-1.329 -1.054,-2.335 -2.656,-2.335 m 12.638,10.142 h -3.457 v -12.18 h 3.594 v 5.655 c 0,2.38 1.282,3.595 3.228,3.571 0.252,0 0.504,-0.023 0.756,-0.068 h 0.091 v 3.137 c -0.16,0.068 -0.412,0.091 -0.755,0.091 -1.511,0 -2.61,-0.686 -3.389,-2.381 h -0.068 z m 6.593,1.716 h 3.64 v 3.137 h -3.64 z m 0.023,-13.896 h 3.595 v 12.18 h -3.595 z m 11.722,-0.389 c 3.16,0 5.495,1.372 5.495,4.006 0,3.068 -2.473,3.64 -4.648,4.03 -1.671,0.298 -2.999,0.435 -2.999,1.351 0,0.778 0.71,1.236 1.809,1.236 1.145,0 1.831,-0.435 2.06,-1.305 h 3.343 c -0.32,2.129 -2.015,3.594 -5.403,3.594 -2.862,0 -5.129,-1.305 -5.129,-3.8 0,-2.84 2.198,-3.388 4.373,-3.802 1.695,-0.319 3.137,-0.456 3.137,-1.555 0,-0.871 -0.733,-1.397 -2.015,-1.397 -1.396,0 -2.266,0.64 -2.473,1.786 h -3.388 c 0.183,-2.45 2.312,-4.144 5.838,-4.144 m 7.693,4.898 h 6.479 v 3.114 h -6.479 z m 16.438,-4.922 c 3.892,0 6.869,1.969 6.869,5.496 0,3.593 -2.816,4.602 -5.884,5.289 -2.679,0.594 -4.144,0.892 -4.144,2.219 0,1.078 1.076,1.763 2.678,1.763 1.695,0 2.748,-0.777 2.954,-2.105 h 3.823 c -0.251,3.342 -2.907,5.083 -6.662,5.083 -3.755,0 -6.64,-1.603 -6.64,-5.13 0,-3.548 2.702,-4.373 6.022,-5.127 2.472,-0.573 3.915,-0.893 3.915,-2.381 0,-1.397 -1.42,-1.992 -2.931,-1.992 -2.198,0 -3.411,0.823 -3.617,2.678 h -3.938 c 0.114,-3.687 2.999,-5.793 7.555,-5.793 m 17.355,0.413 h 3.503 v 0.206 c -0.321,0.205 -0.458,0.733 -0.458,1.694 v 6.251 c 0,1.648 -0.596,2.907 -1.855,3.64 -0.847,0.504 -1.946,0.732 -3.503,0.732 -3.617,0 -5.312,-1.946 -5.403,-4.03 h 3.32 c 0.091,0.963 0.755,1.604 2.129,1.604 1.236,0 1.809,-0.595 1.809,-1.465 0,-0.917 -0.893,-1.26 -3.068,-1.557 -2.656,-0.321 -4.785,-1.008 -4.785,-3.709 0,-2.405 1.763,-3.688 4.167,-3.688 1.877,0 2.884,0.688 3.686,1.809 h 0.045 c 0.069,-0.686 0.229,-1.212 0.413,-1.487 m -3.023,2.038 c -0.984,0 -1.785,0.388 -1.785,1.441 0,1.054 0.755,1.442 2.335,1.787 0.801,0.183 1.58,0.366 2.106,0.686 v -1.579 c 0,-1.329 -1.053,-2.335 -2.656,-2.335 m 15.019,-2.427 c 3.389,0 5.587,2.151 5.701,4.922 h -3.457 c -0.16,-1.396 -0.961,-2.198 -2.289,-2.198 -1.809,0 -2.725,1.511 -2.725,3.732 0,2.289 0.916,3.778 2.725,3.778 1.19,0 1.923,-0.711 2.175,-1.832 h 3.48 c -0.435,2.656 -2.45,4.51 -5.701,4.51 -3.824,0 -6.319,-2.793 -6.319,-6.456 0,-3.641 2.518,-6.456 6.41,-6.456 m 8.105,0.389 h 3.617 v 17.033 h -3.617 z m 14.516,0 h 3.503 v 0.206 c -0.321,0.205 -0.458,0.733 -0.458,1.694 v 6.251 c 0,1.648 -0.595,2.907 -1.855,3.64 -0.847,0.504 -1.946,0.732 -3.503,0.732 -3.617,0 -5.311,-1.946 -5.403,-4.03 h 3.32 c 0.092,0.963 0.756,1.604 2.129,1.604 1.237,0 1.809,-0.595 1.809,-1.465 0,-0.917 -0.893,-1.26 -3.068,-1.557 -2.656,-0.321 -4.785,-1.008 -4.785,-3.709 0,-2.405 1.763,-3.688 4.167,-3.688 1.877,0 2.885,0.688 3.686,1.809 h 0.046 c 0.068,-0.686 0.229,-1.212 0.412,-1.487 m -3.022,2.038 c -0.985,0 -1.786,0.388 -1.786,1.441 0,1.054 0.755,1.442 2.335,1.787 0.802,0.183 1.58,0.366 2.107,0.686 v -1.579 c 0,-1.329 -1.054,-2.335 -2.656,-2.335 m 11.607,-6.114 c 2.336,0 3.458,0.961 4.442,3.778 l 4.35,12.478 h -3.571 l -1.489,-4.671 c -0.526,-1.626 -1.076,-4.236 -1.076,-4.236 h -0.046 c 0,0 -0.457,2.588 -1.007,4.236 l -1.557,4.671 h -3.778 l 3.778,-9.731 c 0.435,-1.099 0.641,-2.038 0.641,-2.449 -0.068,-0.824 -0.618,-1.237 -1.74,-1.237 -0.091,0 -1.122,0 -1.167,0.023 h -0.184 v -2.817 c 0.069,-0.021 2.29,-0.045 2.404,-0.045"
       style="fill:#666666;fill-opacity:1;fill-rule:nonzero;stroke:none"
       transform="matrix(1.3333333,0,0,-1.3333333,0,193.33333)" />
    <path
       id="path2"
       d="m 158.675,72.444 h 7.025 c 9.396,0 12.03,3.688 12.03,9.396 0,5.708 -2.634,9.396 -12.03,9.396 h -7.025 v 12.293 h 10.186 c 14.138,0 21.953,-9.746 21.953,-21.602 0,-11.854 -7.815,-21.777 -21.953,-21.777 h -10.186 v 12.294"
       style="fill:#666666;fill-opacity:1;fill-rule:nonzero;stroke:none"
       transform="matrix(1.3333333,0,0,-1.3333333,0,193.33333)" />
    <path
       id="path3"
       d="M 136.898,103.53 H 150.07 V 40.744 h -13.172 z"
       style="fill:#666666;fill-opacity:1;fill-rule:nonzero;stroke:none"
       transform="matrix(1.3333333,0,0,-1.3333333,0,193.33333)" />
    <path
       id="path4"
       d="m 233.413,85.045 h 13.224 c -0.948,11.551 -8.982,19.305 -25.079,19.644 2.057,-4.064 3.738,-8.347 5.004,-12.808 3.541,-0.975 6.369,-3.102 6.851,-6.836 m -22.569,1.234 c 0,3.499 3.259,5.337 7.112,5.983 -1.332,4.032 -3.053,7.883 -5.121,11.515 -8.422,-2.116 -15.392,-7.879 -15.392,-17.498 0,-13.136 11.02,-16.486 22.305,-19.042 0.415,-0.095 0.813,-0.187 1.214,-0.279 3.101,-0.713 5.795,-1.353 7.98,-2.097 4.081,-1.388 6.411,-3.144 6.411,-6.44 0,-4.628 -4.739,-6.407 -9.074,-6.943 -1.282,-4.284 -2.956,-8.396 -4.973,-12.305 0.76,-0.035 1.53,-0.06 2.321,-0.06 14.194,0 25.126,7.406 25.126,19.308 0,11.971 -8.707,16.196 -19.65,18.962 -1.468,0.371 -2.974,0.716 -4.506,1.05 -1.382,0.3 -2.644,0.59 -3.812,0.881 -6.728,1.674 -9.941,3.36 -9.941,6.965 M 209.61,60.007 h -13.224 c 0.336,-9.494 6.079,-16.668 16.391,-19.531 2.035,3.559 3.735,7.33 5.064,11.276 -4.48,0.919 -7.581,3.314 -8.231,8.255"
       style="fill:#666666;fill-opacity:1;fill-rule:nonzero;stroke:none"
       transform="matrix(1.3333333,0,0,-1.3333333,0,193.33333)" />
    <path
       id="path5"
       d="m 302.506,63.617 h 3.503 v 7.624 c 0,2.152 -0.275,6.136 -0.275,6.136 h 0.046 c 0,0 0.733,-3.64 1.328,-5.655 l 2.45,-8.105 h 3.205 l 2.427,8.105 c 0.595,2.015 1.328,5.655 1.328,5.655 h 0.046 c 0,0 -0.275,-3.984 -0.275,-6.136 v -7.624 h 3.595 v 17.034 h -5.312 l -2.084,-7.097 c -0.618,-2.13 -1.259,-6.068 -1.259,-6.068 h -0.069 c 0,0 -0.664,3.938 -1.282,6.068 l -2.129,7.097 h -5.243 z m 26.535,-0.366 c 3.137,0 5.129,1.648 5.747,3.8 h -3.48 c -0.389,-0.755 -1.099,-1.19 -2.221,-1.19 -1.74,0 -2.724,1.099 -2.953,2.93 h 8.883 c 0.023,2.404 -0.595,4.465 -1.969,5.793 -1.076,0.984 -2.45,1.557 -4.19,1.557 -3.709,0 -6.25,-2.794 -6.25,-6.457 0,-3.64 2.45,-6.433 6.433,-6.433 m -1.579,14.378 h 2.678 l 2.725,3.686 h -4.19 z m 1.396,-4.03 c 1.42,0 2.381,-1.03 2.496,-2.724 h -5.197 c 0.229,1.671 1.053,2.724 2.701,2.724 m 14.493,-10.371 c 3.388,0 5.586,2.152 5.701,4.922 h -3.457 c -0.161,-1.396 -0.962,-2.198 -2.29,-2.198 -1.809,0 -2.725,1.511 -2.725,3.732 0,2.29 0.916,3.778 2.725,3.778 1.191,0 1.923,-0.71 2.175,-1.832 h 3.48 c -0.435,2.656 -2.45,4.511 -5.701,4.511 -3.823,0 -6.319,-2.794 -6.319,-6.457 0,-3.64 2.519,-6.456 6.411,-6.456 m 16.095,0.389 h 3.503 v 0.206 c -0.321,0.206 -0.458,0.733 -0.458,1.694 v 6.251 c 0,1.648 -0.595,2.907 -1.855,3.64 -0.847,0.504 -1.946,0.733 -3.502,0.733 -3.618,0 -5.312,-1.946 -5.404,-4.03 h 3.32 c 0.092,0.962 0.756,1.603 2.129,1.603 1.237,0 1.809,-0.595 1.809,-1.465 0,-0.916 -0.893,-1.26 -3.068,-1.557 -2.656,-0.321 -4.785,-1.008 -4.785,-3.709 0,-2.404 1.763,-3.687 4.167,-3.687 1.877,0 2.885,0.687 3.686,1.809 h 0.046 c 0.068,-0.687 0.229,-1.213 0.412,-1.488 m -3.022,2.038 c -0.985,0 -1.786,0.389 -1.786,1.442 0,1.053 0.755,1.442 2.335,1.786 0.802,0.183 1.58,0.366 2.107,0.687 v -1.58 c 0,-1.328 -1.054,-2.335 -2.656,-2.335 m 12.661,10.142 h -3.481 v -12.18 h 3.595 v 6.869 c 0,1.556 0.939,2.678 2.335,2.678 1.328,0 2.038,-0.893 2.038,-2.221 v -7.326 h 3.572 v 8.013 c 0,2.725 -1.557,4.511 -4.236,4.511 -1.694,0 -2.999,-0.733 -3.755,-2.198 h -0.068 z m 11.012,1.717 h 3.64 v 3.137 h -3.64 z m 0.023,-13.897 h 3.595 v 12.18 h -3.595 z m 14.996,-4.052 h 3.572 v 16.232 h -3.435 V 74.08 h -0.068 c -0.825,1.397 -1.992,2.061 -3.664,2.061 -3.228,0 -5.288,-2.702 -5.288,-6.434 0,-3.961 2.083,-6.479 5.357,-6.479 1.603,0 2.839,0.71 3.572,1.9 h 0.045 c -0.045,-0.504 -0.091,-1.488 -0.091,-2.656 z m -2.702,6.456 c -1.602,0 -2.541,1.397 -2.541,3.572 0,2.175 0.824,3.686 2.61,3.686 1.832,0 2.747,-1.603 2.747,-3.686 0,-2.084 -0.961,-3.572 -2.816,-3.572 m 20.675,-2.404 v 12.18 h -3.549 v -6.891 c 0,-1.511 -0.893,-2.61 -2.336,-2.61 -1.282,0 -1.946,0.778 -1.946,2.129 v 7.372 h -3.594 v -8.059 c 0,-2.679 1.511,-4.464 4.281,-4.464 1.672,0 2.771,0.664 3.663,2.083 h 0.069 v -1.74 z m 8.929,-0.366 c 3.136,0 5.128,1.648 5.746,3.8 h -3.48 c -0.389,-0.755 -1.099,-1.19 -2.221,-1.19 -1.74,0 -2.724,1.099 -2.953,2.93 h 8.883 c 0.023,2.404 -0.595,4.465 -1.969,5.793 -1.076,0.984 -2.449,1.557 -4.189,1.557 -3.709,0 -6.251,-2.794 -6.251,-6.457 0,-3.64 2.45,-6.433 6.434,-6.433 m -0.183,10.348 c 1.419,0 2.381,-1.03 2.495,-2.724 h -5.197 c 0.229,1.671 1.053,2.724 2.702,2.724"
       style="fill:#192855;fill-opacity:1;fill-rule:nonzero;stroke:none"
       transform="matrix(1.3333333,0,0,-1.3333333,0,193.33333)" />
    <path
       id="path6"
       d="m 269.241,86.512 h 11.745 v 3.343 h -7.853 v 13.691 h -3.892 z m 22.3,0 h 3.503 v 0.206 c -0.321,0.206 -0.458,0.733 -0.458,1.694 v 6.251 c 0,1.648 -0.596,2.907 -1.855,3.64 -0.847,0.504 -1.946,0.733 -3.503,0.733 -3.617,0 -5.312,-1.946 -5.403,-4.03 h 3.32 c 0.091,0.962 0.755,1.603 2.129,1.603 1.236,0 1.809,-0.595 1.809,-1.465 0,-0.916 -0.893,-1.26 -3.068,-1.557 -2.656,-0.321 -4.785,-1.008 -4.785,-3.709 0,-2.404 1.763,-3.687 4.167,-3.687 1.877,0 2.884,0.687 3.686,1.809 h 0.046 c 0.068,-0.687 0.228,-1.213 0.412,-1.488 m -3.023,2.038 c -0.984,0 -1.785,0.389 -1.785,1.442 0,1.053 0.755,1.442 2.335,1.786 0.801,0.183 1.58,0.366 2.106,0.687 v -1.58 c 0,-1.328 -1.053,-2.335 -2.656,-2.335 m 16.393,-2.427 c 3.16,0 5.22,2.45 5.22,6.479 0,3.732 -2.083,6.434 -5.243,6.434 -1.694,0 -2.816,-0.802 -3.64,-2.038 h -0.069 c 0.046,0.733 0.115,1.786 0.115,2.816 v 3.732 h -3.595 V 86.512 h 3.457 v 1.786 h 0.046 c 0.71,-1.488 2.084,-2.175 3.709,-2.175 m -0.961,2.885 c -1.74,0 -2.771,1.465 -2.771,3.594 0,2.107 0.87,3.709 2.748,3.709 1.694,0 2.541,-1.511 2.541,-3.686 0,-2.198 -0.847,-3.617 -2.518,-3.617 m 14.538,-2.885 c 3.869,0 6.41,2.816 6.41,6.456 0,3.663 -2.541,6.457 -6.41,6.457 -3.892,0 -6.457,-2.794 -6.457,-6.457 0,-3.64 2.565,-6.456 6.457,-6.456 m -0.023,2.61 c -1.832,0 -2.793,1.557 -2.793,3.846 0,2.313 0.961,3.892 2.793,3.892 1.786,0 2.793,-1.579 2.793,-3.892 0,-2.289 -1.007,-3.846 -2.793,-3.846 m 12.386,9.959 h -3.457 v -12.18 h 3.595 v 5.655 c 0,2.381 1.282,3.595 3.228,3.572 0.252,0 0.503,-0.023 0.755,-0.069 h 0.092 v 3.137 c -0.16,0.068 -0.412,0.091 -0.756,0.091 -1.511,0 -2.61,-0.687 -3.388,-2.381 h -0.069 z m 14.195,-12.18 h 3.503 v 0.206 c -0.32,0.206 -0.458,0.733 -0.458,1.694 v 6.251 c 0,1.648 -0.595,2.907 -1.854,3.64 -0.847,0.504 -1.946,0.733 -3.503,0.733 -3.618,0 -5.312,-1.946 -5.404,-4.03 h 3.32 c 0.092,0.962 0.756,1.603 2.129,1.603 1.237,0 1.809,-0.595 1.809,-1.465 0,-0.916 -0.893,-1.26 -3.068,-1.557 -2.656,-0.321 -4.785,-1.008 -4.785,-3.709 0,-2.404 1.763,-3.687 4.167,-3.687 1.877,0 2.885,0.687 3.686,1.809 h 0.046 c 0.069,-0.687 0.229,-1.213 0.412,-1.488 m -3.022,2.038 c -0.985,0 -1.786,0.389 -1.786,1.442 0,1.053 0.756,1.442 2.335,1.786 0.802,0.183 1.58,0.366 2.107,0.687 v -1.58 c 0,-1.328 -1.053,-2.335 -2.656,-2.335 m 8.357,7.853 h 1.831 V 89.58 c 0,-2.473 1.534,-3.205 3.801,-3.205 0.961,0 1.694,0.114 2.083,0.183 v 2.679 h -0.183 c -0.229,-0.023 -0.595,-0.046 -0.824,-0.046 -0.847,0 -1.351,0.252 -1.351,1.167 v 6.045 h 2.381 v 2.289 h -2.381 v 3.893 h -3.526 v -3.893 h -1.831 z m 16.186,-10.28 c 3.87,0 6.411,2.816 6.411,6.456 0,3.663 -2.541,6.457 -6.411,6.457 -3.892,0 -6.456,-2.794 -6.456,-6.457 0,-3.64 2.564,-6.456 6.456,-6.456 m -0.022,2.61 c -1.832,0 -2.794,1.557 -2.794,3.846 0,2.313 0.962,3.892 2.794,3.892 1.785,0 2.793,-1.579 2.793,-3.892 0,-2.289 -1.008,-3.846 -2.793,-3.846 m 8.906,11.676 h 3.64 v 3.137 h -3.64 z m 0.023,-13.897 h 3.595 v 12.18 h -3.595 z m 10.119,12.18 h -3.457 v -12.18 h 3.594 v 5.655 c 0,2.381 1.283,3.595 3.229,3.572 0.252,0 0.503,-0.023 0.755,-0.069 h 0.092 v 3.137 c -0.16,0.068 -0.412,0.091 -0.756,0.091 -1.511,0 -2.61,-0.687 -3.388,-2.381 h -0.069 z m 12.249,-12.546 c 3.137,0 5.128,1.648 5.747,3.8 h -3.48 c -0.39,-0.755 -1.099,-1.19 -2.221,-1.19 -1.74,0 -2.725,1.099 -2.954,2.93 h 8.884 c 0.023,2.404 -0.596,4.465 -1.969,5.793 -1.076,0.984 -2.45,1.557 -4.19,1.557 -3.709,0 -6.251,-2.794 -6.251,-6.457 0,-3.64 2.45,-6.433 6.434,-6.433 m -0.183,10.348 c 1.419,0 2.381,-1.03 2.495,-2.724 h -5.197 c 0.229,1.671 1.053,2.724 2.702,2.724"
       style="fill:#192855;fill-opacity:1;fill-rule:nonzero;stroke:none"
       transform="matrix(1.3333333,0,0,-1.3333333,0,193.33333)" />
    <path
       id="path7"
       d="m 273.547,63.303 c 1.65,0 3.003,0.688 3.713,2.178 h 0.046 v -1.788 h 3.461 v 17.054 h -3.598 V 77.01 c 0,-1.031 0.046,-2.063 0.091,-2.819 h -0.045 c -0.826,1.261 -1.949,2.04 -3.622,2.04 -3.163,0 -5.272,-2.705 -5.272,-6.441 0,-4.034 2.063,-6.487 5.226,-6.487 m 0.963,2.888 c -1.674,0 -2.522,1.421 -2.522,3.622 0,2.177 0.848,3.69 2.545,3.69 1.856,0 2.75,-1.558 2.75,-3.713 0,-2.132 -1.031,-3.599 -2.773,-3.599 m 15.197,-2.865 c 3.14,0 5.134,1.65 5.753,3.805 h -3.484 c -0.389,-0.756 -1.1,-1.192 -2.223,-1.192 -1.742,0 -2.728,1.1 -2.957,2.934 h 8.894 c 0.022,2.407 -0.596,4.47 -1.972,5.799 -1.077,0.986 -2.452,1.559 -4.194,1.559 -3.714,0 -6.258,-2.796 -6.258,-6.464 0,-3.645 2.452,-6.441 6.441,-6.441 m -0.183,10.361 c 1.421,0 2.383,-1.032 2.498,-2.728 h -5.203 c 0.229,1.673 1.054,2.728 2.705,2.728"
       style="fill:#192855;fill-opacity:1;fill-rule:nonzero;stroke:none"
       transform="matrix(1.3333333,0,0,-1.3333333,0,193.33333)" />
    <path
       id="path8"
       d="M 71.918,0 C 31.086,0 0,31.349 0,72.093 c 0,40.745 31.086,72.181 71.918,72.181 29.505,0 53.301,-16.596 64.892,-40.744 h -18.879 l -9.044,-31.788 6.497,-18.089 8.342,28.978 V 40.744 h 13.172 C 125.219,16.596 101.423,0 71.918,0 m 0,103.53 V 40.744 H 85.09 V 85.879 L 99.666,40.744 h 11.591 L 90.095,103.53 Z m -48.296,0 V 40.744 H 61.38 V 53.038 H 36.794 V 103.53 H 23.622"
       style="fill:#192855;fill-opacity:1;fill-rule:nonzero;stroke:none"
       transform="matrix(1.3333333,0,0,-1.3333333,0,193.33333)"
       clip-path="url(#clipPath9)" />
  </g>
</svg>
